<?xml version="1.0" encoding="utf-8"?>
<!-- Generator: Adobe Illustrator 25.4.1, SVG Export Plug-In . SVG Version: 6.00 Build 0)  -->
<svg version="1.1" id="Layer_1" xmlns="http://www.w3.org/2000/svg" xmlns:xlink="http://www.w3.org/1999/xlink" x="0px" y="0px"
     viewBox="0 0 40 40" style="enable-background:new 0 0 40 40;" xml:space="preserve">
<style type="text/css">
	.st0{fill:#ED2A48;}
	.st1{fill:#FFFFFF;}
</style>
    <circle class="st0" cx="19.9" cy="19.9" r="17.8"/>
    <path class="st1" d="M29.8,22.1h-6.9c-1.3,0-2.4-1.1-2.4-2.4c0-1.3,1.1-2.4,2.4-2.4c0,0,0,0,0,0c1.1,0,2,0.8,2.3,1.8
	c0.1,0.5,0.6,0.9,1.1,0.8c0.1,0,0.1,0,0.2,0c0.5-0.1,0.9-0.6,0.8-1.1c0-0.1,0-0.1,0-0.2c-0.5-2-2.3-3.5-4.4-3.5
	c-2.5,0-4.6,2.1-4.6,4.6s2.1,4.6,4.6,4.6h6.9c0.6,0,1.1-0.5,1.1-1.1S30.4,22.1,29.8,22.1z"/>
    <path class="st1" d="M27.6,26H13.2c-1,0-1.9-0.8-1.9-1.9c0-1,0.8-1.9,1.9-1.9c0,0,0,0,0,0c1-0.1,1.8,0.7,1.9,1.7c0,0.1,0,0.1,0,0.2
	c0,0.6,0.5,1.1,1.1,1.1s1.1-0.5,1.1-1.1c0-2.3-1.8-4.1-4.1-4.1c-2.3,0-4.1,1.8-4.1,4.1s1.8,4.1,4.1,4.1h14.4c0.6,0,1.1-0.5,1.1-1.1
	S28.3,26,27.6,26z"/>
    <path class="st1" d="M15.9,19.1c0.3,0,0.6-0.1,0.8-0.3c0.4-0.5,0.4-1.1,0-1.6c-0.8-0.7-0.9-1.9-0.2-2.7c0,0,0,0,0,0
	c0.4-0.4,0.9-0.6,1.4-0.7c0.6,0,1-0.4,1-1c0,0,0-0.1,0-0.1c0-0.6-0.4-1-1-1c0,0-0.1,0-0.1,0c-2.3,0.1-4,2-3.9,4.3
	c0,1.1,0.5,2.1,1.3,2.8C15.4,19,15.7,19.1,15.9,19.1z"/>
</svg>
